<svg width="2329" height="23" viewBox="0 0 2329 23" fill="none" xmlns="http://www.w3.org/2000/svg">
<path d="M6.24 4.12H0.57V0.699999H15.45V4.12H9.75V22H6.24V4.12ZM18.6654 0.699999H25.6254C26.6054 0.699999 27.5054 0.849999 28.3254 1.15C29.1454 1.45 29.8454 1.87 30.4254 2.41C31.0054 2.95 31.4554 3.6 31.7754 4.36C32.1154 5.1 32.2854 5.92 32.2854 6.82C32.2854 7.46 32.1854 8.09 31.9854 8.71C31.8054 9.33 31.5154 9.91 31.1154 10.45C30.7354 10.97 30.2454 11.43 29.6454 11.83C29.0654 12.21 28.3754 12.5 27.5754 12.7L34.7754 22H30.5754L23.6454 12.94H22.1454V22H18.6654V0.699999ZM25.3254 9.91C26.4454 9.91 27.2954 9.64 27.8754 9.1C28.4754 8.56 28.7754 7.84 28.7754 6.94C28.7754 6 28.4754 5.26 27.8754 4.72C27.2954 4.18 26.4454 3.91 25.3254 3.91H22.1454V9.91H25.3254ZM37.5326 0.699999H41.0126V22H37.5326V0.699999ZM49.7723 8.32V22H46.2923V0.459998L60.8423 14.38V0.699999H64.3223V22.24L49.7723 8.32ZM69.6127 0.699999H73.0927V22H69.6127V0.699999ZM81.9724 4.12H76.3024V0.699999H91.1824V4.12H85.4824V22H81.9724V4.12ZM99.7378 13L91.9078 0.699999H95.9878L101.478 9.52L106.998 0.699999H111.078L103.248 13V22H99.7378V13ZM120.091 0.699999H126.481C127.561 0.699999 128.551 0.869999 129.451 1.21C130.371 1.53 131.151 1.99 131.791 2.59C132.431 3.19 132.931 3.91 133.291 4.75C133.651 5.57 133.831 6.48 133.831 7.48C133.831 8.48 133.651 9.4 133.291 10.24C132.931 11.06 132.431 11.77 131.791 12.37C131.151 12.97 130.371 13.44 129.451 13.78C128.551 14.1 127.561 14.26 126.481 14.26H123.571V22H120.091V0.699999ZM126.421 11.02C127.681 11.02 128.651 10.7 129.331 10.06C130.011 9.42 130.351 8.56 130.351 7.48C130.351 6.42 130.011 5.57 129.331 4.93C128.651 4.27 127.681 3.94 126.421 3.94H123.571V11.02H126.421ZM137.376 0.699999H144.336C145.316 0.699999 146.216 0.849999 147.036 1.15C147.856 1.45 148.556 1.87 149.136 2.41C149.716 2.95 150.166 3.6 150.486 4.36C150.826 5.1 150.996 5.92 150.996 6.82C150.996 7.46 150.896 8.09 150.696 8.71C150.516 9.33 150.226 9.91 149.826 10.45C149.446 10.97 148.956 11.43 148.356 11.83C147.776 12.21 147.086 12.5 146.286 12.7L153.486 22H149.286L142.356 12.94H140.856V22H137.376V0.699999ZM144.036 9.91C145.156 9.91 146.006 9.64 146.586 9.1C147.186 8.56 147.486 7.84 147.486 6.94C147.486 6 147.186 5.26 146.586 4.72C146.006 4.18 145.156 3.91 144.036 3.91H140.856V9.91H144.036ZM165.285 22.24C163.765 22.24 162.345 21.96 161.025 21.4C159.705 20.84 158.555 20.07 157.575 19.09C156.595 18.11 155.815 16.96 155.235 15.64C154.675 14.32 154.395 12.89 154.395 11.35C154.395 9.83 154.675 8.41 155.235 7.09C155.815 5.75 156.595 4.59 157.575 3.61C158.555 2.63 159.705 1.86 161.025 1.3C162.345 0.739998 163.765 0.459998 165.285 0.459998C166.785 0.459998 168.195 0.739998 169.515 1.3C170.855 1.86 172.015 2.63 172.995 3.61C173.975 4.59 174.745 5.75 175.305 7.09C175.885 8.41 176.175 9.83 176.175 11.35C176.175 12.89 175.885 14.32 175.305 15.64C174.745 16.96 173.975 18.11 172.995 19.09C172.015 20.07 170.855 20.84 169.515 21.4C168.195 21.96 166.785 22.24 165.285 22.24ZM165.285 18.88C166.325 18.88 167.295 18.69 168.195 18.31C169.095 17.91 169.865 17.38 170.505 16.72C171.165 16.04 171.675 15.24 172.035 14.32C172.415 13.4 172.605 12.41 172.605 11.35C172.605 10.29 172.415 9.3 172.035 8.38C171.675 7.46 171.165 6.67 170.505 6.01C169.865 5.33 169.095 4.8 168.195 4.42C167.295 4.02 166.325 3.82 165.285 3.82C164.225 3.82 163.245 4.02 162.345 4.42C161.445 4.8 160.665 5.33 160.005 6.01C159.365 6.67 158.855 7.46 158.475 8.38C158.115 9.3 157.935 10.29 157.935 11.35C157.935 12.41 158.115 13.4 158.475 14.32C158.855 15.24 159.365 16.04 160.005 16.72C160.665 17.38 161.445 17.91 162.345 18.31C163.245 18.69 164.225 18.88 165.285 18.88ZM180.091 0.699999H186.841C188.421 0.699999 189.891 0.979999 191.251 1.54C192.631 2.08 193.811 2.83 194.791 3.79C195.791 4.73 196.571 5.85 197.131 7.15C197.711 8.45 198.001 9.85 198.001 11.35C198.001 12.85 197.711 14.25 197.131 15.55C196.571 16.85 195.791 17.98 194.791 18.94C193.811 19.88 192.631 20.63 191.251 21.19C189.891 21.73 188.421 22 186.841 22H180.091V0.699999ZM186.841 18.76C187.981 18.76 189.021 18.57 189.961 18.19C190.901 17.81 191.701 17.29 192.361 16.63C193.021 15.97 193.531 15.19 193.891 14.29C194.271 13.39 194.461 12.41 194.461 11.35C194.461 10.31 194.271 9.34 193.891 8.44C193.531 7.52 193.021 6.73 192.361 6.07C191.701 5.41 190.901 4.89 189.961 4.51C189.021 4.13 187.981 3.94 186.841 3.94H183.571V18.76H186.841ZM210.257 22.24C208.997 22.24 207.837 22.04 206.777 21.64C205.737 21.24 204.837 20.68 204.077 19.96C203.317 19.22 202.727 18.32 202.307 17.26C201.887 16.2 201.677 15.01 201.677 13.69V0.699999H205.157V13.81C205.157 15.45 205.627 16.71 206.567 17.59C207.507 18.45 208.737 18.88 210.257 18.88C211.757 18.88 212.977 18.45 213.917 17.59C214.857 16.71 215.327 15.45 215.327 13.81V0.699999H218.837V13.72C218.837 15.04 218.627 16.23 218.207 17.29C217.787 18.33 217.197 19.22 216.437 19.96C215.677 20.68 214.767 21.24 213.707 21.64C212.667 22.04 211.517 22.24 210.257 22.24ZM233.43 22.24C231.91 22.24 230.49 21.96 229.17 21.4C227.85 20.84 226.7 20.07 225.72 19.09C224.74 18.11 223.96 16.96 223.38 15.64C222.82 14.32 222.54 12.89 222.54 11.35C222.54 9.83 222.82 8.41 223.38 7.09C223.96 5.75 224.74 4.59 225.72 3.61C226.7 2.63 227.85 1.86 229.17 1.3C230.49 0.739998 231.91 0.459998 233.43 0.459998C234.35 0.459998 235.23 0.569999 236.07 0.789999C236.93 1.01 237.73 1.31 238.47 1.69C239.21 2.07 239.88 2.52 240.48 3.04C241.1 3.56 241.63 4.12 242.07 4.72L239.52 6.91C238.88 5.97 238.03 5.22 236.97 4.66C235.93 4.1 234.75 3.82 233.43 3.82C232.37 3.82 231.39 4.02 230.49 4.42C229.59 4.8 228.81 5.33 228.15 6.01C227.51 6.67 227 7.46 226.62 8.38C226.26 9.3 226.08 10.29 226.08 11.35C226.08 12.41 226.26 13.4 226.62 14.32C227 15.24 227.51 16.04 228.15 16.72C228.81 17.38 229.59 17.91 230.49 18.31C231.39 18.69 232.37 18.88 233.43 18.88C234.75 18.88 235.93 18.6 236.97 18.04C238.03 17.48 238.88 16.73 239.52 15.79L242.07 17.98C241.63 18.58 241.1 19.14 240.48 19.66C239.88 20.18 239.21 20.63 238.47 21.01C237.73 21.39 236.93 21.69 236.07 21.91C235.23 22.13 234.35 22.24 233.43 22.24ZM249.053 4.12H243.383V0.699999H258.263V4.12H252.563V22H249.053V4.12ZM261.478 0.699999H264.958V22H261.478V0.699999ZM279.778 22.24C278.258 22.24 276.838 21.96 275.518 21.4C274.198 20.84 273.048 20.07 272.068 19.09C271.088 18.11 270.308 16.96 269.728 15.64C269.168 14.32 268.888 12.89 268.888 11.35C268.888 9.83 269.168 8.41 269.728 7.09C270.308 5.75 271.088 4.59 272.068 3.61C273.048 2.63 274.198 1.86 275.518 1.3C276.838 0.739998 278.258 0.459998 279.778 0.459998C281.278 0.459998 282.688 0.739998 284.008 1.3C285.348 1.86 286.508 2.63 287.488 3.61C288.468 4.59 289.238 5.75 289.798 7.09C290.378 8.41 290.668 9.83 290.668 11.35C290.668 12.89 290.378 14.32 289.798 15.64C289.238 16.96 288.468 18.11 287.488 19.09C286.508 20.07 285.348 20.84 284.008 21.4C282.688 21.96 281.278 22.24 279.778 22.24ZM279.778 18.88C280.818 18.88 281.788 18.69 282.688 18.31C283.588 17.91 284.358 17.38 284.998 16.72C285.658 16.04 286.168 15.24 286.528 14.32C286.908 13.4 287.098 12.41 287.098 11.35C287.098 10.29 286.908 9.3 286.528 8.38C286.168 7.46 285.658 6.67 284.998 6.01C284.358 5.33 283.588 4.8 282.688 4.42C281.788 4.02 280.818 3.82 279.778 3.82C278.718 3.82 277.738 4.02 276.838 4.42C275.938 4.8 275.158 5.33 274.498 6.01C273.858 6.67 273.348 7.46 272.968 8.38C272.608 9.3 272.428 10.29 272.428 11.35C272.428 12.41 272.608 13.4 272.968 14.32C273.348 15.24 273.858 16.04 274.498 16.72C275.158 17.38 275.938 17.91 276.838 18.31C277.738 18.69 278.718 18.88 279.778 18.88ZM298.063 8.32V22H294.583V0.459998L309.133 14.38V0.699999H312.613V22.24L298.063 8.32ZM342.158 4.12H336.488V0.699999H351.368V4.12H345.668V22H342.158V4.12ZM354.583 0.699999H361.543C362.523 0.699999 363.423 0.849999 364.243 1.15C365.063 1.45 365.763 1.87 366.343 2.41C366.923 2.95 367.373 3.6 367.693 4.36C368.033 5.1 368.203 5.92 368.203 6.82C368.203 7.46 368.103 8.09 367.903 8.71C367.723 9.33 367.433 9.91 367.033 10.45C366.653 10.97 366.163 11.43 365.563 11.83C364.983 12.21 364.293 12.5 363.493 12.7L370.693 22H366.493L359.563 12.94H358.063V22H354.583V0.699999ZM361.243 9.91C362.363 9.91 363.213 9.64 363.793 9.1C364.393 8.56 364.693 7.84 364.693 6.94C364.693 6 364.393 5.26 363.793 4.72C363.213 4.18 362.363 3.91 361.243 3.91H358.063V9.91H361.243ZM373.451 0.699999H376.931V22H373.451V0.699999ZM385.69 8.32V22H382.21V0.459998L396.76 14.38V0.699999H400.24V22.24L385.69 8.32ZM405.531 0.699999H409.011V22H405.531V0.699999ZM417.89 4.12H412.22V0.699999H427.1V4.12H421.4V22H417.89V4.12ZM435.656 13L427.826 0.699999H431.906L437.396 9.52L442.916 0.699999H446.996L439.166 13V22H435.656V13ZM456.009 0.699999H462.399C463.479 0.699999 464.469 0.869999 465.369 1.21C466.289 1.53 467.069 1.99 467.709 2.59C468.349 3.19 468.849 3.91 469.209 4.75C469.569 5.57 469.749 6.48 469.749 7.48C469.749 8.48 469.569 9.4 469.209 10.24C468.849 11.06 468.349 11.77 467.709 12.37C467.069 12.97 466.289 13.44 465.369 13.78C464.469 14.1 463.479 14.26 462.399 14.26H459.489V22H456.009V0.699999ZM462.339 11.02C463.599 11.02 464.569 10.7 465.249 10.06C465.929 9.42 466.269 8.56 466.269 7.48C466.269 6.42 465.929 5.57 465.249 4.93C464.569 4.27 463.599 3.94 462.339 3.94H459.489V11.02H462.339ZM473.294 0.699999H480.254C481.234 0.699999 482.134 0.849999 482.954 1.15C483.774 1.45 484.474 1.87 485.054 2.41C485.634 2.95 486.084 3.6 486.404 4.36C486.744 5.1 486.914 5.92 486.914 6.82C486.914 7.46 486.814 8.09 486.614 8.71C486.434 9.33 486.144 9.91 485.744 10.45C485.364 10.97 484.874 11.43 484.274 11.83C483.694 12.21 483.004 12.5 482.204 12.7L489.404 22H485.204L478.274 12.94H476.774V22H473.294V0.699999ZM479.954 9.91C481.074 9.91 481.924 9.64 482.504 9.1C483.104 8.56 483.404 7.84 483.404 6.94C483.404 6 483.104 5.26 482.504 4.72C481.924 4.18 481.074 3.91 479.954 3.91H476.774V9.91H479.954ZM501.203 22.24C499.683 22.24 498.263 21.96 496.943 21.4C495.623 20.84 494.473 20.07 493.493 19.09C492.513 18.11 491.733 16.96 491.153 15.64C490.593 14.32 490.313 12.89 490.313 11.35C490.313 9.83 490.593 8.41 491.153 7.09C491.733 5.75 492.513 4.59 493.493 3.61C494.473 2.63 495.623 1.86 496.943 1.3C498.263 0.739998 499.683 0.459998 501.203 0.459998C502.703 0.459998 504.113 0.739998 505.433 1.3C506.773 1.86 507.933 2.63 508.913 3.61C509.893 4.59 510.663 5.75 511.223 7.09C511.803 8.41 512.093 9.83 512.093 11.35C512.093 12.89 511.803 14.32 511.223 15.64C510.663 16.96 509.893 18.11 508.913 19.09C507.933 20.07 506.773 20.84 505.433 21.4C504.113 21.96 502.703 22.24 501.203 22.24ZM501.203 18.88C502.243 18.88 503.213 18.69 504.113 18.31C505.013 17.91 505.783 17.38 506.423 16.72C507.083 16.04 507.593 15.24 507.953 14.32C508.333 13.4 508.523 12.41 508.523 11.35C508.523 10.29 508.333 9.3 507.953 8.38C507.593 7.46 507.083 6.67 506.423 6.01C505.783 5.33 505.013 4.8 504.113 4.42C503.213 4.02 502.243 3.82 501.203 3.82C500.143 3.82 499.163 4.02 498.263 4.42C497.363 4.8 496.583 5.33 495.923 6.01C495.283 6.67 494.773 7.46 494.393 8.38C494.033 9.3 493.853 10.29 493.853 11.35C493.853 12.41 494.033 13.4 494.393 14.32C494.773 15.24 495.283 16.04 495.923 16.72C496.583 17.38 497.363 17.91 498.263 18.31C499.163 18.69 500.143 18.88 501.203 18.88ZM516.009 0.699999H522.759C524.339 0.699999 525.809 0.979999 527.169 1.54C528.549 2.08 529.729 2.83 530.709 3.79C531.709 4.73 532.489 5.85 533.049 7.15C533.629 8.45 533.919 9.85 533.919 11.35C533.919 12.85 533.629 14.25 533.049 15.55C532.489 16.85 531.709 17.98 530.709 18.94C529.729 19.88 528.549 20.63 527.169 21.19C525.809 21.73 524.339 22 522.759 22H516.009V0.699999ZM522.759 18.76C523.899 18.76 524.939 18.57 525.879 18.19C526.819 17.81 527.619 17.29 528.279 16.63C528.939 15.97 529.449 15.19 529.809 14.29C530.189 13.39 530.379 12.41 530.379 11.35C530.379 10.31 530.189 9.34 529.809 8.44C529.449 7.52 528.939 6.73 528.279 6.07C527.619 5.41 526.819 4.89 525.879 4.51C524.939 4.13 523.899 3.94 522.759 3.94H519.489V18.76H522.759ZM546.175 22.24C544.915 22.24 543.755 22.04 542.695 21.64C541.655 21.24 540.755 20.68 539.995 19.96C539.235 19.22 538.645 18.32 538.225 17.26C537.805 16.2 537.595 15.01 537.595 13.69V0.699999H541.075V13.81C541.075 15.45 541.545 16.71 542.485 17.59C543.425 18.45 544.655 18.88 546.175 18.88C547.675 18.88 548.895 18.45 549.835 17.59C550.775 16.71 551.245 15.45 551.245 13.81V0.699999H554.755V13.72C554.755 15.04 554.545 16.23 554.125 17.29C553.705 18.33 553.115 19.22 552.355 19.96C551.595 20.68 550.685 21.24 549.625 21.64C548.585 22.04 547.435 22.24 546.175 22.24ZM569.348 22.24C567.828 22.24 566.408 21.96 565.088 21.4C563.768 20.84 562.618 20.07 561.638 19.09C560.658 18.11 559.878 16.96 559.298 15.64C558.738 14.32 558.458 12.89 558.458 11.35C558.458 9.83 558.738 8.41 559.298 7.09C559.878 5.75 560.658 4.59 561.638 3.61C562.618 2.63 563.768 1.86 565.088 1.3C566.408 0.739998 567.828 0.459998 569.348 0.459998C570.268 0.459998 571.148 0.569999 571.988 0.789999C572.848 1.01 573.648 1.31 574.388 1.69C575.128 2.07 575.798 2.52 576.398 3.04C577.018 3.56 577.548 4.12 577.988 4.72L575.438 6.91C574.798 5.97 573.948 5.22 572.888 4.66C571.848 4.1 570.668 3.82 569.348 3.82C568.288 3.82 567.308 4.02 566.408 4.42C565.508 4.8 564.728 5.33 564.068 6.01C563.428 6.67 562.918 7.46 562.538 8.38C562.178 9.3 561.998 10.29 561.998 11.35C561.998 12.41 562.178 13.4 562.538 14.32C562.918 15.24 563.428 16.04 564.068 16.72C564.728 17.38 565.508 17.91 566.408 18.31C567.308 18.69 568.288 18.88 569.348 18.88C570.668 18.88 571.848 18.6 572.888 18.04C573.948 17.48 574.798 16.73 575.438 15.79L577.988 17.98C577.548 18.58 577.018 19.14 576.398 19.66C575.798 20.18 575.128 20.63 574.388 21.01C573.648 21.39 572.848 21.69 571.988 21.91C571.148 22.13 570.268 22.24 569.348 22.24ZM584.97 4.12H579.3V0.699999H594.18V4.12H588.48V22H584.97V4.12ZM597.396 0.699999H600.876V22H597.396V0.699999ZM615.696 22.24C614.176 22.24 612.756 21.96 611.436 21.4C610.116 20.84 608.966 20.07 607.986 19.09C607.006 18.11 606.226 16.96 605.646 15.64C605.086 14.32 604.806 12.89 604.806 11.35C604.806 9.83 605.086 8.41 605.646 7.09C606.226 5.75 607.006 4.59 607.986 3.61C608.966 2.63 610.116 1.86 611.436 1.3C612.756 0.739998 614.176 0.459998 615.696 0.459998C617.196 0.459998 618.606 0.739998 619.926 1.3C621.266 1.86 622.426 2.63 623.406 3.61C624.386 4.59 625.156 5.75 625.716 7.09C626.296 8.41 626.586 9.83 626.586 11.35C626.586 12.89 626.296 14.32 625.716 15.64C625.156 16.96 624.386 18.11 623.406 19.09C622.426 20.07 621.266 20.84 619.926 21.4C618.606 21.96 617.196 22.24 615.696 22.24ZM615.696 18.88C616.736 18.88 617.706 18.69 618.606 18.31C619.506 17.91 620.276 17.38 620.916 16.72C621.576 16.04 622.086 15.24 622.446 14.32C622.826 13.4 623.016 12.41 623.016 11.35C623.016 10.29 622.826 9.3 622.446 8.38C622.086 7.46 621.576 6.67 620.916 6.01C620.276 5.33 619.506 4.8 618.606 4.42C617.706 4.02 616.736 3.82 615.696 3.82C614.636 3.82 613.656 4.02 612.756 4.42C611.856 4.8 611.076 5.33 610.416 6.01C609.776 6.67 609.266 7.46 608.886 8.38C608.526 9.3 608.346 10.29 608.346 11.35C608.346 12.41 608.526 13.4 608.886 14.32C609.266 15.24 609.776 16.04 610.416 16.72C611.076 17.38 611.856 17.91 612.756 18.31C613.656 18.69 614.636 18.88 615.696 18.88ZM633.981 8.32V22H630.501V0.459998L645.051 14.38V0.699999H648.531V22.24L633.981 8.32ZM678.076 4.12H672.406V0.699999H687.286V4.12H681.586V22H678.076V4.12ZM690.501 0.699999H697.461C698.441 0.699999 699.341 0.849999 700.161 1.15C700.981 1.45 701.681 1.87 702.261 2.41C702.841 2.95 703.291 3.6 703.611 4.36C703.951 5.1 704.121 5.92 704.121 6.82C704.121 7.46 704.021 8.09 703.821 8.71C703.641 9.33 703.351 9.91 702.951 10.45C702.571 10.97 702.081 11.43 701.481 11.83C700.901 12.21 700.211 12.5 699.411 12.7L706.611 22H702.411L695.481 12.94H693.981V22H690.501V0.699999ZM697.161 9.91C698.281 9.91 699.131 9.64 699.711 9.1C700.311 8.56 700.611 7.84 700.611 6.94C700.611 6 700.311 5.26 699.711 4.72C699.131 4.18 698.281 3.91 697.161 3.91H693.981V9.91H697.161ZM709.369 0.699999H712.849V22H709.369V0.699999ZM721.608 8.32V22H718.128V0.459998L732.678 14.38V0.699999H736.158V22.24L721.608 8.32ZM741.449 0.699999H744.929V22H741.449V0.699999ZM753.808 4.12H748.138V0.699999H763.018V4.12H757.318V22H753.808V4.12ZM771.574 13L763.744 0.699999H767.824L773.314 9.52L778.834 0.699999H782.914L775.084 13V22H771.574V13ZM791.927 0.699999H798.317C799.397 0.699999 800.387 0.869999 801.287 1.21C802.207 1.53 802.987 1.99 803.627 2.59C804.267 3.19 804.767 3.91 805.127 4.75C805.487 5.57 805.667 6.48 805.667 7.48C805.667 8.48 805.487 9.4 805.127 10.24C804.767 11.06 804.267 11.77 803.627 12.37C802.987 12.97 802.207 13.44 801.287 13.78C800.387 14.1 799.397 14.26 798.317 14.26H795.407V22H791.927V0.699999ZM798.257 11.02C799.517 11.02 800.487 10.7 801.167 10.06C801.847 9.42 802.187 8.56 802.187 7.48C802.187 6.42 801.847 5.57 801.167 4.93C800.487 4.27 799.517 3.94 798.257 3.94H795.407V11.02H798.257ZM809.212 0.699999H816.172C817.152 0.699999 818.052 0.849999 818.872 1.15C819.692 1.45 820.392 1.87 820.972 2.41C821.552 2.95 822.002 3.6 822.322 4.36C822.662 5.1 822.832 5.92 822.832 6.82C822.832 7.46 822.732 8.09 822.532 8.71C822.352 9.33 822.062 9.91 821.662 10.45C821.282 10.97 820.792 11.43 820.192 11.83C819.612 12.21 818.922 12.5 818.122 12.7L825.322 22H821.122L814.192 12.94H812.692V22H809.212V0.699999ZM815.872 9.91C816.992 9.91 817.842 9.64 818.422 9.1C819.022 8.56 819.322 7.84 819.322 6.94C819.322 6 819.022 5.26 818.422 4.72C817.842 4.18 816.992 3.91 815.872 3.91H812.692V9.91H815.872ZM837.121 22.24C835.601 22.24 834.181 21.96 832.861 21.4C831.541 20.84 830.391 20.07 829.411 19.09C828.431 18.11 827.651 16.96 827.071 15.64C826.511 14.32 826.231 12.89 826.231 11.35C826.231 9.83 826.511 8.41 827.071 7.09C827.651 5.75 828.431 4.59 829.411 3.61C830.391 2.63 831.541 1.86 832.861 1.3C834.181 0.739998 835.601 0.459998 837.121 0.459998C838.621 0.459998 840.031 0.739998 841.351 1.3C842.691 1.86 843.851 2.63 844.831 3.61C845.811 4.59 846.581 5.75 847.141 7.09C847.721 8.41 848.011 9.83 848.011 11.35C848.011 12.89 847.721 14.32 847.141 15.64C846.581 16.96 845.811 18.11 844.831 19.09C843.851 20.07 842.691 20.84 841.351 21.4C840.031 21.96 838.621 22.24 837.121 22.24ZM837.121 18.88C838.161 18.88 839.131 18.69 840.031 18.31C840.931 17.91 841.701 17.38 842.341 16.72C843.001 16.04 843.511 15.24 843.871 14.32C844.251 13.4 844.441 12.41 844.441 11.35C844.441 10.29 844.251 9.3 843.871 8.38C843.511 7.46 843.001 6.67 842.341 6.01C841.701 5.33 840.931 4.8 840.031 4.42C839.131 4.02 838.161 3.82 837.121 3.82C836.061 3.82 835.081 4.02 834.181 4.42C833.281 4.8 832.501 5.33 831.841 6.01C831.201 6.67 830.691 7.46 830.311 8.38C829.951 9.3 829.771 10.29 829.771 11.35C829.771 12.41 829.951 13.4 830.311 14.32C830.691 15.24 831.201 16.04 831.841 16.72C832.501 17.38 833.281 17.91 834.181 18.31C835.081 18.69 836.061 18.88 837.121 18.88ZM851.927 0.699999H858.677C860.257 0.699999 861.727 0.979999 863.087 1.54C864.467 2.08 865.647 2.83 866.627 3.79C867.627 4.73 868.407 5.85 868.967 7.15C869.547 8.45 869.837 9.85 869.837 11.35C869.837 12.85 869.547 14.25 868.967 15.55C868.407 16.85 867.627 17.98 866.627 18.94C865.647 19.88 864.467 20.63 863.087 21.19C861.727 21.73 860.257 22 858.677 22H851.927V0.699999ZM858.677 18.76C859.817 18.76 860.857 18.57 861.797 18.19C862.737 17.81 863.537 17.29 864.197 16.63C864.857 15.97 865.367 15.19 865.727 14.29C866.107 13.39 866.297 12.41 866.297 11.35C866.297 10.31 866.107 9.34 865.727 8.44C865.367 7.52 864.857 6.73 864.197 6.07C863.537 5.41 862.737 4.89 861.797 4.51C860.857 4.13 859.817 3.94 858.677 3.94H855.407V18.76H858.677ZM882.093 22.24C880.833 22.24 879.673 22.04 878.613 21.64C877.573 21.24 876.673 20.68 875.913 19.96C875.153 19.22 874.563 18.32 874.143 17.26C873.723 16.2 873.513 15.01 873.513 13.69V0.699999H876.993V13.81C876.993 15.45 877.463 16.71 878.403 17.59C879.343 18.45 880.573 18.88 882.093 18.88C883.593 18.88 884.813 18.45 885.753 17.59C886.693 16.71 887.163 15.45 887.163 13.81V0.699999H890.673V13.72C890.673 15.04 890.463 16.23 890.043 17.29C889.623 18.33 889.033 19.22 888.273 19.96C887.513 20.68 886.603 21.24 885.543 21.64C884.503 22.04 883.353 22.24 882.093 22.24ZM905.266 22.24C903.746 22.24 902.326 21.96 901.006 21.4C899.686 20.84 898.536 20.07 897.556 19.09C896.576 18.11 895.796 16.96 895.216 15.64C894.656 14.32 894.376 12.89 894.376 11.35C894.376 9.83 894.656 8.41 895.216 7.09C895.796 5.75 896.576 4.59 897.556 3.61C898.536 2.63 899.686 1.86 901.006 1.3C902.326 0.739998 903.746 0.459998 905.266 0.459998C906.186 0.459998 907.066 0.569999 907.906 0.789999C908.766 1.01 909.566 1.31 910.306 1.69C911.046 2.07 911.716 2.52 912.316 3.04C912.936 3.56 913.466 4.12 913.906 4.72L911.356 6.91C910.716 5.97 909.866 5.22 908.806 4.66C907.766 4.1 906.586 3.82 905.266 3.82C904.206 3.82 903.226 4.02 902.326 4.42C901.426 4.8 900.646 5.33 899.986 6.01C899.346 6.67 898.836 7.46 898.456 8.38C898.096 9.3 897.916 10.29 897.916 11.35C897.916 12.41 898.096 13.4 898.456 14.32C898.836 15.24 899.346 16.04 899.986 16.72C900.646 17.38 901.426 17.91 902.326 18.31C903.226 18.69 904.206 18.88 905.266 18.88C906.586 18.88 907.766 18.6 908.806 18.04C909.866 17.48 910.716 16.73 911.356 15.79L913.906 17.98C913.466 18.58 912.936 19.14 912.316 19.66C911.716 20.18 911.046 20.63 910.306 21.01C909.566 21.39 908.766 21.69 907.906 21.91C907.066 22.13 906.186 22.24 905.266 22.24ZM920.888 4.12H915.218V0.699999H930.098V4.12H924.398V22H920.888V4.12ZM933.314 0.699999H936.794V22H933.314V0.699999ZM951.614 22.24C950.094 22.24 948.674 21.96 947.354 21.4C946.034 20.84 944.884 20.07 943.904 19.09C942.924 18.11 942.144 16.96 941.564 15.64C941.004 14.32 940.724 12.89 940.724 11.35C940.724 9.83 941.004 8.41 941.564 7.09C942.144 5.75 942.924 4.59 943.904 3.61C944.884 2.63 946.034 1.86 947.354 1.3C948.674 0.739998 950.094 0.459998 951.614 0.459998C953.114 0.459998 954.524 0.739998 955.844 1.3C957.184 1.86 958.344 2.63 959.324 3.61C960.304 4.59 961.074 5.75 961.634 7.09C962.214 8.41 962.504 9.83 962.504 11.35C962.504 12.89 962.214 14.32 961.634 15.64C961.074 16.96 960.304 18.11 959.324 19.09C958.344 20.07 957.184 20.84 955.844 21.4C954.524 21.96 953.114 22.24 951.614 22.24ZM951.614 18.88C952.654 18.88 953.624 18.69 954.524 18.31C955.424 17.91 956.194 17.38 956.834 16.72C957.494 16.04 958.004 15.24 958.364 14.32C958.744 13.4 958.934 12.41 958.934 11.35C958.934 10.29 958.744 9.3 958.364 8.38C958.004 7.46 957.494 6.67 956.834 6.01C956.194 5.33 955.424 4.8 954.524 4.42C953.624 4.02 952.654 3.82 951.614 3.82C950.554 3.82 949.574 4.02 948.674 4.42C947.774 4.8 946.994 5.33 946.334 6.01C945.694 6.67 945.184 7.46 944.804 8.38C944.444 9.3 944.264 10.29 944.264 11.35C944.264 12.41 944.444 13.4 944.804 14.32C945.184 15.24 945.694 16.04 946.334 16.72C946.994 17.38 947.774 17.91 948.674 18.31C949.574 18.69 950.554 18.88 951.614 18.88ZM969.899 8.32V22H966.419V0.459998L980.969 14.38V0.699999H984.449V22.24L969.899 8.32ZM1013.99 4.12H1008.32V0.699999H1023.2V4.12H1017.5V22H1013.99V4.12ZM1026.42 0.699999H1033.38C1034.36 0.699999 1035.26 0.849999 1036.08 1.15C1036.9 1.45 1037.6 1.87 1038.18 2.41C1038.76 2.95 1039.21 3.6 1039.53 4.36C1039.87 5.1 1040.04 5.92 1040.04 6.82C1040.04 7.46 1039.94 8.09 1039.74 8.71C1039.56 9.33 1039.27 9.91 1038.87 10.45C1038.49 10.97 1038 11.43 1037.4 11.83C1036.82 12.21 1036.13 12.5 1035.33 12.7L1042.53 22H1038.33L1031.4 12.94H1029.9V22H1026.42V0.699999ZM1033.08 9.91C1034.2 9.91 1035.05 9.64 1035.63 9.1C1036.23 8.56 1036.53 7.84 1036.53 6.94C1036.53 6 1036.23 5.26 1035.63 4.72C1035.05 4.18 1034.2 3.91 1033.08 3.91H1029.9V9.91H1033.08ZM1045.29 0.699999H1048.77V22H1045.29V0.699999ZM1057.53 8.32V22H1054.05V0.459998L1068.6 14.38V0.699999H1072.08V22.24L1057.53 8.32ZM1077.37 0.699999H1080.85V22H1077.37V0.699999ZM1089.73 4.12H1084.06V0.699999H1098.94V4.12H1093.24V22H1089.73V4.12ZM1107.49 13L1099.66 0.699999H1103.74L1109.23 9.52L1114.75 0.699999H1118.83L1111 13V22H1107.49V13ZM1127.85 0.699999H1134.24C1135.32 0.699999 1136.31 0.869999 1137.21 1.21C1138.13 1.53 1138.91 1.99 1139.55 2.59C1140.19 3.19 1140.69 3.91 1141.05 4.75C1141.41 5.57 1141.59 6.48 1141.59 7.48C1141.59 8.48 1141.41 9.4 1141.05 10.24C1140.69 11.06 1140.19 11.77 1139.55 12.37C1138.91 12.97 1138.13 13.44 1137.21 13.78C1136.31 14.1 1135.32 14.26 1134.24 14.26H1131.33V22H1127.85V0.699999ZM1134.18 11.02C1135.44 11.02 1136.41 10.7 1137.09 10.06C1137.77 9.42 1138.11 8.56 1138.11 7.48C1138.11 6.42 1137.77 5.57 1137.09 4.93C1136.41 4.27 1135.44 3.94 1134.18 3.94H1131.33V11.02H1134.18ZM1145.13 0.699999H1152.09C1153.07 0.699999 1153.97 0.849999 1154.79 1.15C1155.61 1.45 1156.31 1.87 1156.89 2.41C1157.47 2.95 1157.92 3.6 1158.24 4.36C1158.58 5.1 1158.75 5.92 1158.75 6.82C1158.75 7.46 1158.65 8.09 1158.45 8.71C1158.27 9.33 1157.98 9.91 1157.58 10.45C1157.2 10.97 1156.71 11.43 1156.11 11.83C1155.53 12.21 1154.84 12.5 1154.04 12.7L1161.24 22H1157.04L1150.11 12.94H1148.61V22H1145.13V0.699999ZM1151.79 9.91C1152.91 9.91 1153.76 9.64 1154.34 9.1C1154.94 8.56 1155.24 7.84 1155.24 6.94C1155.24 6 1154.94 5.26 1154.34 4.72C1153.76 4.18 1152.91 3.91 1151.79 3.91H1148.61V9.91H1151.79ZM1173.04 22.24C1171.52 22.24 1170.1 21.96 1168.78 21.4C1167.46 20.84 1166.31 20.07 1165.33 19.09C1164.35 18.11 1163.57 16.96 1162.99 15.64C1162.43 14.32 1162.15 12.89 1162.15 11.35C1162.15 9.83 1162.43 8.41 1162.99 7.09C1163.57 5.75 1164.35 4.59 1165.33 3.61C1166.31 2.63 1167.46 1.86 1168.78 1.3C1170.1 0.739998 1171.52 0.459998 1173.04 0.459998C1174.54 0.459998 1175.95 0.739998 1177.27 1.3C1178.61 1.86 1179.77 2.63 1180.75 3.61C1181.73 4.59 1182.5 5.75 1183.06 7.09C1183.64 8.41 1183.93 9.83 1183.93 11.35C1183.93 12.89 1183.64 14.32 1183.06 15.64C1182.5 16.96 1181.73 18.11 1180.75 19.09C1179.77 20.07 1178.61 20.84 1177.27 21.4C1175.95 21.96 1174.54 22.24 1173.04 22.24ZM1173.04 18.88C1174.08 18.88 1175.05 18.69 1175.95 18.31C1176.85 17.91 1177.62 17.38 1178.26 16.72C1178.92 16.04 1179.43 15.24 1179.79 14.32C1180.17 13.4 1180.36 12.41 1180.36 11.35C1180.36 10.29 1180.17 9.3 1179.79 8.38C1179.43 7.46 1178.92 6.67 1178.26 6.01C1177.62 5.33 1176.85 4.8 1175.95 4.42C1175.05 4.02 1174.08 3.82 1173.04 3.82C1171.98 3.82 1171 4.02 1170.1 4.42C1169.2 4.8 1168.42 5.33 1167.76 6.01C1167.12 6.67 1166.61 7.46 1166.23 8.38C1165.87 9.3 1165.69 10.29 1165.69 11.35C1165.69 12.41 1165.87 13.4 1166.23 14.32C1166.61 15.24 1167.12 16.04 1167.76 16.72C1168.42 17.38 1169.2 17.91 1170.1 18.31C1171 18.69 1171.98 18.88 1173.04 18.88ZM1187.85 0.699999H1194.6C1196.18 0.699999 1197.65 0.979999 1199.01 1.54C1200.39 2.08 1201.57 2.83 1202.55 3.79C1203.55 4.73 1204.33 5.85 1204.89 7.15C1205.47 8.45 1205.76 9.85 1205.76 11.35C1205.76 12.85 1205.47 14.25 1204.89 15.55C1204.33 16.85 1203.55 17.98 1202.55 18.94C1201.57 19.88 1200.39 20.63 1199.01 21.19C1197.65 21.73 1196.18 22 1194.6 22H1187.85V0.699999ZM1194.6 18.76C1195.74 18.76 1196.78 18.57 1197.72 18.19C1198.66 17.81 1199.46 17.29 1200.12 16.63C1200.78 15.97 1201.29 15.19 1201.65 14.29C1202.03 13.39 1202.22 12.41 1202.22 11.35C1202.22 10.31 1202.03 9.34 1201.65 8.44C1201.29 7.52 1200.78 6.73 1200.12 6.07C1199.46 5.41 1198.66 4.89 1197.72 4.51C1196.78 4.13 1195.74 3.94 1194.6 3.94H1191.33V18.76H1194.6ZM1218.01 22.24C1216.75 22.24 1215.59 22.04 1214.53 21.64C1213.49 21.24 1212.59 20.68 1211.83 19.96C1211.07 19.22 1210.48 18.32 1210.06 17.26C1209.64 16.2 1209.43 15.01 1209.43 13.69V0.699999H1212.91V13.81C1212.91 15.45 1213.38 16.71 1214.32 17.59C1215.26 18.45 1216.49 18.88 1218.01 18.88C1219.51 18.88 1220.73 18.45 1221.67 17.59C1222.61 16.71 1223.08 15.45 1223.08 13.81V0.699999H1226.59V13.72C1226.59 15.04 1226.38 16.23 1225.96 17.29C1225.54 18.33 1224.95 19.22 1224.19 19.96C1223.43 20.68 1222.52 21.24 1221.46 21.64C1220.42 22.04 1219.27 22.24 1218.01 22.24ZM1241.18 22.24C1239.66 22.24 1238.24 21.96 1236.92 21.4C1235.6 20.84 1234.45 20.07 1233.47 19.09C1232.49 18.11 1231.71 16.96 1231.13 15.64C1230.57 14.32 1230.29 12.89 1230.29 11.35C1230.29 9.83 1230.57 8.41 1231.13 7.09C1231.71 5.75 1232.49 4.59 1233.47 3.61C1234.45 2.63 1235.6 1.86 1236.92 1.3C1238.24 0.739998 1239.66 0.459998 1241.18 0.459998C1242.1 0.459998 1242.98 0.569999 1243.82 0.789999C1244.68 1.01 1245.48 1.31 1246.22 1.69C1246.96 2.07 1247.63 2.52 1248.23 3.04C1248.85 3.56 1249.38 4.12 1249.82 4.72L1247.27 6.91C1246.63 5.97 1245.78 5.22 1244.72 4.66C1243.68 4.1 1242.5 3.82 1241.18 3.82C1240.12 3.82 1239.14 4.02 1238.24 4.42C1237.34 4.8 1236.56 5.33 1235.9 6.01C1235.26 6.67 1234.75 7.46 1234.37 8.38C1234.01 9.3 1233.83 10.29 1233.83 11.35C1233.83 12.41 1234.01 13.4 1234.37 14.32C1234.75 15.24 1235.26 16.04 1235.9 16.72C1236.56 17.38 1237.34 17.91 1238.24 18.31C1239.14 18.69 1240.12 18.88 1241.18 18.88C1242.5 18.88 1243.68 18.6 1244.72 18.04C1245.78 17.48 1246.63 16.73 1247.27 15.79L1249.82 17.98C1249.38 18.58 1248.85 19.14 1248.23 19.66C1247.63 20.18 1246.96 20.63 1246.22 21.01C1245.48 21.39 1244.68 21.69 1243.82 21.91C1242.98 22.13 1242.1 22.24 1241.18 22.24ZM1256.81 4.12H1251.14V0.699999H1266.02V4.12H1260.32V22H1256.81V4.12ZM1269.23 0.699999H1272.71V22H1269.23V0.699999ZM1287.53 22.24C1286.01 22.24 1284.59 21.96 1283.27 21.4C1281.95 20.84 1280.8 20.07 1279.82 19.09C1278.84 18.11 1278.06 16.96 1277.48 15.64C1276.92 14.32 1276.64 12.89 1276.64 11.35C1276.64 9.83 1276.92 8.41 1277.48 7.09C1278.06 5.75 1278.84 4.59 1279.82 3.61C1280.8 2.63 1281.95 1.86 1283.27 1.3C1284.59 0.739998 1286.01 0.459998 1287.53 0.459998C1289.03 0.459998 1290.44 0.739998 1291.76 1.3C1293.1 1.86 1294.26 2.63 1295.24 3.61C1296.22 4.59 1296.99 5.75 1297.55 7.09C1298.13 8.41 1298.42 9.83 1298.42 11.35C1298.42 12.89 1298.13 14.32 1297.55 15.64C1296.99 16.96 1296.22 18.11 1295.24 19.09C1294.26 20.07 1293.1 20.84 1291.76 21.4C1290.44 21.96 1289.03 22.24 1287.53 22.24ZM1287.53 18.88C1288.57 18.88 1289.54 18.69 1290.44 18.31C1291.34 17.91 1292.11 17.38 1292.75 16.72C1293.41 16.04 1293.92 15.24 1294.28 14.32C1294.66 13.4 1294.85 12.41 1294.85 11.35C1294.85 10.29 1294.66 9.3 1294.28 8.38C1293.92 7.46 1293.41 6.67 1292.75 6.01C1292.11 5.33 1291.34 4.8 1290.44 4.42C1289.54 4.02 1288.57 3.82 1287.53 3.82C1286.47 3.82 1285.49 4.02 1284.59 4.42C1283.69 4.8 1282.91 5.33 1282.25 6.01C1281.61 6.67 1281.1 7.46 1280.72 8.38C1280.36 9.3 1280.18 10.29 1280.18 11.35C1280.18 12.41 1280.36 13.4 1280.72 14.32C1281.1 15.24 1281.61 16.04 1282.25 16.72C1282.91 17.38 1283.69 17.91 1284.59 18.31C1285.49 18.69 1286.47 18.88 1287.53 18.88ZM1305.82 8.32V22H1302.34V0.459998L1316.89 14.38V0.699999H1320.37V22.24L1305.82 8.32ZM1349.91 4.12H1344.24V0.699999H1359.12V4.12H1353.42V22H1349.91V4.12ZM1362.34 0.699999H1369.3C1370.28 0.699999 1371.18 0.849999 1372 1.15C1372.82 1.45 1373.52 1.87 1374.1 2.41C1374.68 2.95 1375.13 3.6 1375.45 4.36C1375.79 5.1 1375.96 5.92 1375.96 6.82C1375.96 7.46 1375.86 8.09 1375.66 8.71C1375.48 9.33 1375.19 9.91 1374.79 10.45C1374.41 10.97 1373.92 11.43 1373.32 11.83C1372.74 12.21 1372.05 12.5 1371.25 12.7L1378.45 22H1374.25L1367.32 12.94H1365.82V22H1362.34V0.699999ZM1369 9.91C1370.12 9.91 1370.97 9.64 1371.55 9.1C1372.15 8.56 1372.45 7.84 1372.45 6.94C1372.45 6 1372.15 5.26 1371.55 4.72C1370.97 4.18 1370.12 3.91 1369 3.91H1365.82V9.91H1369ZM1381.2 0.699999H1384.68V22H1381.2V0.699999ZM1393.44 8.32V22H1389.96V0.459998L1404.51 14.38V0.699999H1407.99V22.24L1393.44 8.32ZM1413.28 0.699999H1416.76V22H1413.28V0.699999ZM1425.64 4.12H1419.97V0.699999H1434.85V4.12H1429.15V22H1425.64V4.12ZM1443.41 13L1435.58 0.699999H1439.66L1445.15 9.52L1450.67 0.699999H1454.75L1446.92 13V22H1443.41V13ZM1463.76 0.699999H1470.15C1471.23 0.699999 1472.22 0.869999 1473.12 1.21C1474.04 1.53 1474.82 1.99 1475.46 2.59C1476.1 3.19 1476.6 3.91 1476.96 4.75C1477.32 5.57 1477.5 6.48 1477.5 7.48C1477.5 8.48 1477.32 9.4 1476.96 10.24C1476.6 11.06 1476.1 11.77 1475.46 12.37C1474.82 12.97 1474.04 13.44 1473.12 13.78C1472.22 14.1 1471.23 14.26 1470.15 14.26H1467.24V22H1463.76V0.699999ZM1470.09 11.02C1471.35 11.02 1472.32 10.7 1473 10.06C1473.68 9.42 1474.02 8.56 1474.02 7.48C1474.02 6.42 1473.68 5.57 1473 4.93C1472.32 4.27 1471.35 3.94 1470.09 3.94H1467.24V11.02H1470.09ZM1481.05 0.699999H1488.01C1488.99 0.699999 1489.89 0.849999 1490.71 1.15C1491.53 1.45 1492.23 1.87 1492.81 2.41C1493.39 2.95 1493.84 3.6 1494.16 4.36C1494.5 5.1 1494.67 5.92 1494.67 6.82C1494.67 7.46 1494.57 8.09 1494.37 8.71C1494.19 9.33 1493.9 9.91 1493.5 10.45C1493.12 10.97 1492.63 11.43 1492.03 11.83C1491.45 12.21 1490.76 12.5 1489.96 12.7L1497.16 22H1492.96L1486.03 12.94H1484.53V22H1481.05V0.699999ZM1487.71 9.91C1488.83 9.91 1489.68 9.64 1490.26 9.1C1490.86 8.56 1491.16 7.84 1491.16 6.94C1491.16 6 1490.86 5.26 1490.26 4.72C1489.68 4.18 1488.83 3.91 1487.71 3.91H1484.53V9.91H1487.71ZM1508.96 22.24C1507.44 22.24 1506.02 21.96 1504.7 21.4C1503.38 20.84 1502.23 20.07 1501.25 19.09C1500.27 18.11 1499.49 16.96 1498.91 15.64C1498.35 14.32 1498.07 12.89 1498.07 11.35C1498.07 9.83 1498.35 8.41 1498.91 7.09C1499.49 5.75 1500.27 4.59 1501.25 3.61C1502.23 2.63 1503.38 1.86 1504.7 1.3C1506.02 0.739998 1507.44 0.459998 1508.96 0.459998C1510.46 0.459998 1511.87 0.739998 1513.19 1.3C1514.53 1.86 1515.69 2.63 1516.67 3.61C1517.65 4.59 1518.42 5.75 1518.98 7.09C1519.56 8.41 1519.85 9.83 1519.85 11.35C1519.85 12.89 1519.56 14.32 1518.98 15.64C1518.42 16.96 1517.65 18.11 1516.67 19.09C1515.69 20.07 1514.53 20.84 1513.19 21.4C1511.87 21.96 1510.46 22.24 1508.96 22.24ZM1508.96 18.88C1510 18.88 1510.97 18.69 1511.87 18.31C1512.77 17.91 1513.54 17.38 1514.18 16.72C1514.84 16.04 1515.35 15.24 1515.71 14.32C1516.09 13.4 1516.28 12.41 1516.28 11.35C1516.28 10.29 1516.09 9.3 1515.71 8.38C1515.35 7.46 1514.84 6.67 1514.18 6.01C1513.54 5.33 1512.77 4.8 1511.87 4.42C1510.97 4.02 1510 3.82 1508.96 3.82C1507.9 3.82 1506.92 4.02 1506.02 4.42C1505.12 4.8 1504.34 5.33 1503.68 6.01C1503.04 6.67 1502.53 7.46 1502.15 8.38C1501.79 9.3 1501.61 10.29 1501.61 11.35C1501.61 12.41 1501.79 13.4 1502.15 14.32C1502.53 15.24 1503.04 16.04 1503.68 16.72C1504.34 17.38 1505.12 17.91 1506.02 18.31C1506.92 18.69 1507.9 18.88 1508.96 18.88ZM1523.76 0.699999H1530.51C1532.09 0.699999 1533.56 0.979999 1534.92 1.54C1536.3 2.08 1537.48 2.83 1538.46 3.79C1539.46 4.73 1540.24 5.85 1540.8 7.15C1541.38 8.45 1541.67 9.85 1541.67 11.35C1541.67 12.85 1541.38 14.25 1540.8 15.55C1540.24 16.85 1539.46 17.98 1538.46 18.94C1537.48 19.88 1536.3 20.63 1534.92 21.19C1533.56 21.73 1532.09 22 1530.51 22H1523.76V0.699999ZM1530.51 18.76C1531.65 18.76 1532.69 18.57 1533.63 18.19C1534.57 17.81 1535.37 17.29 1536.03 16.63C1536.69 15.97 1537.2 15.19 1537.56 14.29C1537.94 13.39 1538.13 12.41 1538.13 11.35C1538.13 10.31 1537.94 9.34 1537.56 8.44C1537.2 7.52 1536.69 6.73 1536.03 6.07C1535.37 5.41 1534.57 4.89 1533.63 4.51C1532.69 4.13 1531.65 3.94 1530.51 3.94H1527.24V18.76H1530.51ZM1553.93 22.24C1552.67 22.24 1551.51 22.04 1550.45 21.64C1549.41 21.24 1548.51 20.68 1547.75 19.96C1546.99 19.22 1546.4 18.32 1545.98 17.26C1545.56 16.2 1545.35 15.01 1545.35 13.69V0.699999H1548.83V13.81C1548.83 15.45 1549.3 16.71 1550.24 17.59C1551.18 18.45 1552.41 18.88 1553.93 18.88C1555.43 18.88 1556.65 18.45 1557.59 17.59C1558.53 16.71 1559 15.45 1559 13.81V0.699999H1562.51V13.72C1562.51 15.04 1562.3 16.23 1561.88 17.29C1561.46 18.33 1560.87 19.22 1560.11 19.96C1559.35 20.68 1558.44 21.24 1557.38 21.64C1556.34 22.04 1555.19 22.24 1553.93 22.24ZM1577.1 22.24C1575.58 22.24 1574.16 21.96 1572.84 21.4C1571.52 20.84 1570.37 20.07 1569.39 19.09C1568.41 18.11 1567.63 16.96 1567.05 15.64C1566.49 14.32 1566.21 12.89 1566.21 11.35C1566.21 9.83 1566.49 8.41 1567.05 7.09C1567.63 5.75 1568.41 4.59 1569.39 3.61C1570.37 2.63 1571.52 1.86 1572.84 1.3C1574.16 0.739998 1575.58 0.459998 1577.1 0.459998C1578.02 0.459998 1578.9 0.569999 1579.74 0.789999C1580.6 1.01 1581.4 1.31 1582.14 1.69C1582.88 2.07 1583.55 2.52 1584.15 3.04C1584.77 3.56 1585.3 4.12 1585.74 4.72L1583.19 6.91C1582.55 5.97 1581.7 5.22 1580.64 4.66C1579.6 4.1 1578.42 3.82 1577.1 3.82C1576.04 3.82 1575.06 4.02 1574.16 4.42C1573.26 4.8 1572.48 5.33 1571.82 6.01C1571.18 6.67 1570.67 7.46 1570.29 8.38C1569.93 9.3 1569.75 10.29 1569.75 11.35C1569.75 12.41 1569.93 13.4 1570.29 14.32C1570.67 15.24 1571.18 16.04 1571.82 16.72C1572.48 17.38 1573.26 17.91 1574.16 18.31C1575.06 18.69 1576.04 18.88 1577.1 18.88C1578.42 18.88 1579.6 18.6 1580.64 18.04C1581.7 17.48 1582.55 16.73 1583.19 15.79L1585.74 17.98C1585.3 18.58 1584.77 19.14 1584.15 19.66C1583.55 20.18 1582.88 20.63 1582.14 21.01C1581.4 21.39 1580.6 21.69 1579.74 21.91C1578.9 22.13 1578.02 22.24 1577.1 22.24ZM1592.72 4.12H1587.05V0.699999H1601.93V4.12H1596.23V22H1592.72V4.12ZM1605.15 0.699999H1608.63V22H1605.15V0.699999ZM1623.45 22.24C1621.93 22.24 1620.51 21.96 1619.19 21.4C1617.87 20.84 1616.72 20.07 1615.74 19.09C1614.76 18.11 1613.98 16.96 1613.4 15.64C1612.84 14.32 1612.56 12.89 1612.56 11.35C1612.56 9.83 1612.84 8.41 1613.4 7.09C1613.98 5.75 1614.76 4.59 1615.74 3.61C1616.72 2.63 1617.87 1.86 1619.19 1.3C1620.51 0.739998 1621.93 0.459998 1623.45 0.459998C1624.95 0.459998 1626.36 0.739998 1627.68 1.3C1629.02 1.86 1630.18 2.63 1631.16 3.61C1632.14 4.59 1632.91 5.75 1633.47 7.09C1634.05 8.41 1634.34 9.83 1634.34 11.35C1634.34 12.89 1634.05 14.32 1633.47 15.64C1632.91 16.96 1632.14 18.11 1631.16 19.09C1630.18 20.07 1629.02 20.84 1627.68 21.4C1626.36 21.96 1624.95 22.24 1623.45 22.24ZM1623.45 18.88C1624.49 18.88 1625.46 18.69 1626.36 18.31C1627.26 17.91 1628.03 17.38 1628.67 16.72C1629.33 16.04 1629.84 15.24 1630.2 14.32C1630.58 13.4 1630.77 12.41 1630.77 11.35C1630.77 10.29 1630.58 9.3 1630.2 8.38C1629.84 7.46 1629.33 6.67 1628.67 6.01C1628.03 5.33 1627.26 4.8 1626.36 4.42C1625.46 4.02 1624.49 3.82 1623.45 3.82C1622.39 3.82 1621.41 4.02 1620.51 4.42C1619.61 4.8 1618.83 5.33 1618.17 6.01C1617.53 6.67 1617.02 7.46 1616.64 8.38C1616.28 9.3 1616.1 10.29 1616.1 11.35C1616.1 12.41 1616.28 13.4 1616.64 14.32C1617.02 15.24 1617.53 16.04 1618.17 16.72C1618.83 17.38 1619.61 17.91 1620.51 18.31C1621.41 18.69 1622.39 18.88 1623.45 18.88ZM1641.74 8.32V22H1638.26V0.459998L1652.81 14.38V0.699999H1656.29V22.24L1641.74 8.32ZM1685.83 4.12H1680.16V0.699999H1695.04V4.12H1689.34V22H1685.83V4.12ZM1698.26 0.699999H1705.22C1706.2 0.699999 1707.1 0.849999 1707.92 1.15C1708.74 1.45 1709.44 1.87 1710.02 2.41C1710.6 2.95 1711.05 3.6 1711.37 4.36C1711.71 5.1 1711.88 5.92 1711.88 6.82C1711.88 7.46 1711.78 8.09 1711.58 8.71C1711.4 9.33 1711.11 9.91 1710.71 10.45C1710.33 10.97 1709.84 11.43 1709.24 11.83C1708.66 12.21 1707.97 12.5 1707.17 12.7L1714.37 22H1710.17L1703.24 12.94H1701.74V22H1698.26V0.699999ZM1704.92 9.91C1706.04 9.91 1706.89 9.64 1707.47 9.1C1708.07 8.56 1708.37 7.84 1708.37 6.94C1708.37 6 1708.07 5.26 1707.47 4.72C1706.89 4.18 1706.04 3.91 1704.92 3.91H1701.74V9.91H1704.92ZM1717.12 0.699999H1720.6V22H1717.12V0.699999ZM1729.36 8.32V22H1725.88V0.459998L1740.43 14.38V0.699999H1743.91V22.24L1729.36 8.32ZM1749.2 0.699999H1752.68V22H1749.2V0.699999ZM1761.56 4.12H1755.89V0.699999H1770.77V4.12H1765.07V22H1761.56V4.12ZM1779.33 13L1771.5 0.699999H1775.58L1781.07 9.52L1786.59 0.699999H1790.67L1782.84 13V22H1779.33V13ZM1799.68 0.699999H1806.07C1807.15 0.699999 1808.14 0.869999 1809.04 1.21C1809.96 1.53 1810.74 1.99 1811.38 2.59C1812.02 3.19 1812.52 3.91 1812.88 4.75C1813.24 5.57 1813.42 6.48 1813.42 7.48C1813.42 8.48 1813.24 9.4 1812.88 10.24C1812.52 11.06 1812.02 11.77 1811.38 12.37C1810.74 12.97 1809.96 13.44 1809.04 13.78C1808.14 14.1 1807.15 14.26 1806.07 14.26H1803.16V22H1799.68V0.699999ZM1806.01 11.02C1807.27 11.02 1808.24 10.7 1808.92 10.06C1809.6 9.42 1809.94 8.56 1809.94 7.48C1809.94 6.42 1809.6 5.57 1808.92 4.93C1808.24 4.27 1807.27 3.94 1806.01 3.94H1803.16V11.02H1806.01ZM1816.97 0.699999H1823.93C1824.91 0.699999 1825.81 0.849999 1826.63 1.15C1827.45 1.45 1828.15 1.87 1828.73 2.41C1829.31 2.95 1829.76 3.6 1830.08 4.36C1830.42 5.1 1830.59 5.92 1830.59 6.82C1830.59 7.46 1830.49 8.09 1830.29 8.71C1830.11 9.33 1829.82 9.91 1829.42 10.45C1829.04 10.97 1828.55 11.43 1827.95 11.83C1827.37 12.21 1826.68 12.5 1825.88 12.7L1833.08 22H1828.88L1821.95 12.94H1820.45V22H1816.97V0.699999ZM1823.63 9.91C1824.75 9.91 1825.6 9.64 1826.18 9.1C1826.78 8.56 1827.08 7.84 1827.08 6.94C1827.08 6 1826.78 5.26 1826.18 4.72C1825.6 4.18 1824.75 3.91 1823.63 3.91H1820.45V9.91H1823.63ZM1844.88 22.24C1843.36 22.24 1841.94 21.96 1840.62 21.4C1839.3 20.84 1838.15 20.07 1837.17 19.09C1836.19 18.11 1835.41 16.96 1834.83 15.64C1834.27 14.32 1833.99 12.89 1833.99 11.35C1833.99 9.83 1834.27 8.41 1834.83 7.09C1835.41 5.75 1836.19 4.59 1837.17 3.61C1838.15 2.63 1839.3 1.86 1840.62 1.3C1841.94 0.739998 1843.36 0.459998 1844.88 0.459998C1846.38 0.459998 1847.79 0.739998 1849.11 1.3C1850.45 1.86 1851.61 2.63 1852.59 3.61C1853.57 4.59 1854.34 5.75 1854.9 7.09C1855.48 8.41 1855.77 9.83 1855.77 11.35C1855.77 12.89 1855.48 14.32 1854.9 15.64C1854.34 16.96 1853.57 18.11 1852.59 19.09C1851.61 20.07 1850.45 20.84 1849.11 21.4C1847.79 21.96 1846.38 22.24 1844.88 22.24ZM1844.88 18.88C1845.92 18.88 1846.89 18.69 1847.79 18.31C1848.69 17.91 1849.46 17.38 1850.1 16.72C1850.76 16.04 1851.27 15.24 1851.63 14.32C1852.01 13.4 1852.2 12.41 1852.2 11.35C1852.2 10.29 1852.01 9.3 1851.63 8.38C1851.27 7.46 1850.76 6.67 1850.1 6.01C1849.46 5.33 1848.69 4.8 1847.79 4.42C1846.89 4.02 1845.92 3.82 1844.88 3.82C1843.82 3.82 1842.84 4.02 1841.94 4.42C1841.04 4.8 1840.26 5.33 1839.6 6.01C1838.96 6.67 1838.45 7.46 1838.07 8.38C1837.71 9.3 1837.53 10.29 1837.53 11.35C1837.53 12.41 1837.71 13.4 1838.07 14.32C1838.45 15.24 1838.96 16.04 1839.6 16.72C1840.26 17.38 1841.04 17.91 1841.94 18.31C1842.84 18.69 1843.82 18.88 1844.88 18.88ZM1859.68 0.699999H1866.43C1868.01 0.699999 1869.48 0.979999 1870.84 1.54C1872.22 2.08 1873.4 2.83 1874.38 3.79C1875.38 4.73 1876.16 5.85 1876.72 7.15C1877.3 8.45 1877.59 9.85 1877.59 11.35C1877.59 12.85 1877.3 14.25 1876.72 15.55C1876.16 16.85 1875.38 17.98 1874.38 18.94C1873.4 19.88 1872.22 20.63 1870.84 21.19C1869.48 21.73 1868.01 22 1866.43 22H1859.68V0.699999ZM1866.43 18.76C1867.57 18.76 1868.61 18.57 1869.55 18.19C1870.49 17.81 1871.29 17.29 1871.95 16.63C1872.61 15.97 1873.12 15.19 1873.48 14.29C1873.86 13.39 1874.05 12.41 1874.05 11.35C1874.05 10.31 1873.86 9.34 1873.48 8.44C1873.12 7.52 1872.61 6.73 1871.95 6.07C1871.29 5.41 1870.49 4.89 1869.55 4.51C1868.61 4.13 1867.57 3.94 1866.43 3.94H1863.16V18.76H1866.43ZM1889.85 22.24C1888.59 22.24 1887.43 22.04 1886.37 21.64C1885.33 21.24 1884.43 20.68 1883.67 19.96C1882.91 19.22 1882.32 18.32 1881.9 17.26C1881.48 16.2 1881.27 15.01 1881.27 13.69V0.699999H1884.75V13.81C1884.75 15.45 1885.22 16.71 1886.16 17.59C1887.1 18.45 1888.33 18.88 1889.85 18.88C1891.35 18.88 1892.57 18.45 1893.51 17.59C1894.45 16.71 1894.92 15.45 1894.92 13.81V0.699999H1898.43V13.72C1898.43 15.04 1898.22 16.23 1897.8 17.29C1897.38 18.33 1896.79 19.22 1896.03 19.96C1895.27 20.68 1894.36 21.24 1893.3 21.64C1892.26 22.04 1891.11 22.24 1889.85 22.24ZM1913.02 22.24C1911.5 22.24 1910.08 21.96 1908.76 21.4C1907.44 20.84 1906.29 20.07 1905.31 19.09C1904.33 18.11 1903.55 16.96 1902.97 15.64C1902.41 14.32 1902.13 12.89 1902.13 11.35C1902.13 9.83 1902.41 8.41 1902.97 7.09C1903.55 5.75 1904.33 4.59 1905.31 3.61C1906.29 2.63 1907.44 1.86 1908.76 1.3C1910.08 0.739998 1911.5 0.459998 1913.02 0.459998C1913.94 0.459998 1914.82 0.569999 1915.66 0.789999C1916.52 1.01 1917.32 1.31 1918.06 1.69C1918.8 2.07 1919.47 2.52 1920.07 3.04C1920.69 3.56 1921.22 4.12 1921.66 4.72L1919.11 6.91C1918.47 5.97 1917.62 5.22 1916.56 4.66C1915.52 4.1 1914.34 3.82 1913.02 3.82C1911.96 3.82 1910.98 4.02 1910.08 4.42C1909.18 4.8 1908.4 5.33 1907.74 6.01C1907.1 6.67 1906.59 7.46 1906.21 8.38C1905.85 9.3 1905.67 10.29 1905.67 11.35C1905.67 12.41 1905.85 13.4 1906.21 14.32C1906.59 15.24 1907.1 16.04 1907.74 16.72C1908.4 17.38 1909.18 17.91 1910.08 18.31C1910.98 18.69 1911.96 18.88 1913.02 18.88C1914.34 18.88 1915.52 18.6 1916.56 18.04C1917.62 17.48 1918.47 16.73 1919.11 15.79L1921.66 17.98C1921.22 18.58 1920.69 19.14 1920.07 19.66C1919.47 20.18 1918.8 20.63 1918.06 21.01C1917.32 21.39 1916.52 21.69 1915.66 21.91C1914.82 22.13 1913.94 22.24 1913.02 22.24ZM1928.64 4.12H1922.97V0.699999H1937.85V4.12H1932.15V22H1928.64V4.12ZM1941.07 0.699999H1944.55V22H1941.07V0.699999ZM1959.37 22.24C1957.85 22.24 1956.43 21.96 1955.11 21.4C1953.79 20.84 1952.64 20.07 1951.66 19.09C1950.68 18.11 1949.9 16.96 1949.32 15.64C1948.76 14.32 1948.48 12.89 1948.48 11.35C1948.48 9.83 1948.76 8.41 1949.32 7.09C1949.9 5.75 1950.68 4.59 1951.66 3.61C1952.64 2.63 1953.79 1.86 1955.11 1.3C1956.43 0.739998 1957.85 0.459998 1959.37 0.459998C1960.87 0.459998 1962.28 0.739998 1963.6 1.3C1964.94 1.86 1966.1 2.63 1967.08 3.61C1968.06 4.59 1968.83 5.75 1969.39 7.09C1969.97 8.41 1970.26 9.83 1970.26 11.35C1970.26 12.89 1969.97 14.32 1969.39 15.64C1968.83 16.96 1968.06 18.11 1967.08 19.09C1966.1 20.07 1964.94 20.84 1963.6 21.4C1962.28 21.96 1960.87 22.24 1959.37 22.24ZM1959.37 18.88C1960.41 18.88 1961.38 18.69 1962.28 18.31C1963.18 17.91 1963.95 17.38 1964.59 16.72C1965.25 16.04 1965.76 15.24 1966.12 14.32C1966.5 13.4 1966.69 12.41 1966.69 11.35C1966.69 10.29 1966.5 9.3 1966.12 8.38C1965.76 7.46 1965.25 6.67 1964.59 6.01C1963.95 5.33 1963.18 4.8 1962.28 4.42C1961.38 4.02 1960.41 3.82 1959.37 3.82C1958.31 3.82 1957.33 4.02 1956.43 4.42C1955.53 4.8 1954.75 5.33 1954.09 6.01C1953.45 6.67 1952.94 7.46 1952.56 8.38C1952.2 9.3 1952.02 10.29 1952.02 11.35C1952.02 12.41 1952.2 13.4 1952.56 14.32C1952.94 15.24 1953.45 16.04 1954.09 16.72C1954.75 17.38 1955.53 17.91 1956.43 18.31C1957.33 18.69 1958.31 18.88 1959.37 18.88ZM1977.65 8.32V22H1974.17V0.459998L1988.72 14.38V0.699999H1992.2V22.24L1977.65 8.32ZM2021.75 4.12H2016.08V0.699999H2030.96V4.12H2025.26V22H2021.75V4.12ZM2034.17 0.699999H2041.13C2042.11 0.699999 2043.01 0.849999 2043.83 1.15C2044.65 1.45 2045.35 1.87 2045.93 2.41C2046.51 2.95 2046.96 3.6 2047.28 4.36C2047.62 5.1 2047.79 5.92 2047.79 6.82C2047.79 7.46 2047.69 8.09 2047.49 8.71C2047.31 9.33 2047.02 9.91 2046.62 10.45C2046.24 10.97 2045.75 11.43 2045.15 11.83C2044.57 12.21 2043.88 12.5 2043.08 12.7L2050.28 22H2046.08L2039.15 12.94H2037.65V22H2034.17V0.699999ZM2040.83 9.91C2041.95 9.91 2042.8 9.64 2043.38 9.1C2043.98 8.56 2044.28 7.84 2044.28 6.94C2044.28 6 2043.98 5.26 2043.38 4.72C2042.8 4.18 2041.95 3.91 2040.83 3.91H2037.65V9.91H2040.83ZM2053.04 0.699999H2056.52V22H2053.04V0.699999ZM2065.28 8.32V22H2061.8V0.459998L2076.35 14.38V0.699999H2079.83V22.24L2065.28 8.32ZM2085.12 0.699999H2088.6V22H2085.12V0.699999ZM2097.48 4.12H2091.81V0.699999H2106.69V4.12H2100.99V22H2097.48V4.12ZM2115.25 13L2107.42 0.699999H2111.5L2116.99 9.52L2122.51 0.699999H2126.59L2118.76 13V22H2115.25V13ZM2135.6 0.699999H2141.99C2143.07 0.699999 2144.06 0.869999 2144.96 1.21C2145.88 1.53 2146.66 1.99 2147.3 2.59C2147.94 3.19 2148.44 3.91 2148.8 4.75C2149.16 5.57 2149.34 6.48 2149.34 7.48C2149.34 8.48 2149.16 9.4 2148.8 10.24C2148.44 11.06 2147.94 11.77 2147.3 12.37C2146.66 12.97 2145.88 13.44 2144.96 13.78C2144.06 14.1 2143.07 14.26 2141.99 14.26H2139.08V22H2135.6V0.699999ZM2141.93 11.02C2143.19 11.02 2144.16 10.7 2144.84 10.06C2145.52 9.42 2145.86 8.56 2145.86 7.48C2145.86 6.42 2145.52 5.57 2144.84 4.93C2144.16 4.27 2143.19 3.94 2141.93 3.94H2139.08V11.02H2141.93ZM2152.88 0.699999H2159.84C2160.82 0.699999 2161.72 0.849999 2162.54 1.15C2163.36 1.45 2164.06 1.87 2164.64 2.41C2165.22 2.95 2165.67 3.6 2165.99 4.36C2166.33 5.1 2166.5 5.92 2166.5 6.82C2166.5 7.46 2166.4 8.09 2166.2 8.71C2166.02 9.33 2165.73 9.91 2165.33 10.45C2164.95 10.97 2164.46 11.43 2163.86 11.83C2163.28 12.21 2162.59 12.5 2161.79 12.7L2168.99 22H2164.79L2157.86 12.94H2156.36V22H2152.88V0.699999ZM2159.54 9.91C2160.66 9.91 2161.51 9.64 2162.09 9.1C2162.69 8.56 2162.99 7.84 2162.99 6.94C2162.99 6 2162.69 5.26 2162.09 4.72C2161.51 4.18 2160.66 3.91 2159.54 3.91H2156.36V9.91H2159.54ZM2180.79 22.24C2179.27 22.24 2177.85 21.96 2176.53 21.4C2175.21 20.84 2174.06 20.07 2173.08 19.09C2172.1 18.11 2171.32 16.96 2170.74 15.64C2170.18 14.32 2169.9 12.89 2169.9 11.35C2169.9 9.83 2170.18 8.41 2170.74 7.09C2171.32 5.75 2172.1 4.59 2173.08 3.61C2174.06 2.63 2175.21 1.86 2176.53 1.3C2177.85 0.739998 2179.27 0.459998 2180.79 0.459998C2182.29 0.459998 2183.7 0.739998 2185.02 1.3C2186.36 1.86 2187.52 2.63 2188.5 3.61C2189.48 4.59 2190.25 5.75 2190.81 7.09C2191.39 8.41 2191.68 9.83 2191.68 11.35C2191.68 12.89 2191.39 14.32 2190.81 15.64C2190.25 16.96 2189.48 18.11 2188.5 19.09C2187.52 20.07 2186.36 20.84 2185.02 21.4C2183.7 21.96 2182.29 22.24 2180.79 22.24ZM2180.79 18.88C2181.83 18.88 2182.8 18.69 2183.7 18.31C2184.6 17.91 2185.37 17.38 2186.01 16.72C2186.67 16.04 2187.18 15.24 2187.54 14.32C2187.92 13.4 2188.11 12.41 2188.11 11.35C2188.11 10.29 2187.92 9.3 2187.54 8.38C2187.18 7.46 2186.67 6.67 2186.01 6.01C2185.37 5.33 2184.6 4.8 2183.7 4.42C2182.8 4.02 2181.83 3.82 2180.79 3.82C2179.73 3.82 2178.75 4.02 2177.85 4.42C2176.95 4.8 2176.17 5.33 2175.51 6.01C2174.87 6.67 2174.36 7.46 2173.98 8.38C2173.62 9.3 2173.44 10.29 2173.44 11.35C2173.44 12.41 2173.62 13.4 2173.98 14.32C2174.36 15.24 2174.87 16.04 2175.51 16.72C2176.17 17.38 2176.95 17.91 2177.85 18.31C2178.75 18.69 2179.73 18.88 2180.79 18.88ZM2195.6 0.699999H2202.35C2203.93 0.699999 2205.4 0.979999 2206.76 1.54C2208.14 2.08 2209.32 2.83 2210.3 3.79C2211.3 4.73 2212.08 5.85 2212.64 7.15C2213.22 8.45 2213.51 9.85 2213.51 11.35C2213.51 12.85 2213.22 14.25 2212.64 15.55C2212.08 16.85 2211.3 17.98 2210.3 18.94C2209.32 19.88 2208.14 20.63 2206.76 21.19C2205.4 21.73 2203.93 22 2202.35 22H2195.6V0.699999ZM2202.35 18.76C2203.49 18.76 2204.53 18.57 2205.47 18.19C2206.41 17.81 2207.21 17.29 2207.87 16.63C2208.53 15.97 2209.04 15.19 2209.4 14.29C2209.78 13.39 2209.97 12.41 2209.97 11.35C2209.97 10.31 2209.78 9.34 2209.4 8.44C2209.04 7.52 2208.53 6.73 2207.87 6.07C2207.21 5.41 2206.41 4.89 2205.47 4.51C2204.53 4.13 2203.49 3.94 2202.35 3.94H2199.08V18.76H2202.35ZM2225.77 22.24C2224.51 22.24 2223.35 22.04 2222.29 21.64C2221.25 21.24 2220.35 20.68 2219.59 19.96C2218.83 19.22 2218.24 18.32 2217.82 17.26C2217.4 16.2 2217.19 15.01 2217.19 13.69V0.699999H2220.67V13.81C2220.67 15.45 2221.14 16.71 2222.08 17.59C2223.02 18.45 2224.25 18.88 2225.77 18.88C2227.27 18.88 2228.49 18.45 2229.43 17.59C2230.37 16.71 2230.84 15.45 2230.84 13.81V0.699999H2234.35V13.72C2234.35 15.04 2234.14 16.23 2233.72 17.29C2233.3 18.33 2232.71 19.22 2231.95 19.96C2231.19 20.68 2230.28 21.24 2229.22 21.64C2228.18 22.04 2227.03 22.24 2225.77 22.24ZM2248.94 22.24C2247.42 22.24 2246 21.96 2244.68 21.4C2243.36 20.84 2242.21 20.07 2241.23 19.09C2240.25 18.11 2239.47 16.96 2238.89 15.64C2238.33 14.32 2238.05 12.89 2238.05 11.35C2238.05 9.83 2238.33 8.41 2238.89 7.09C2239.47 5.75 2240.25 4.59 2241.23 3.61C2242.21 2.63 2243.36 1.86 2244.68 1.3C2246 0.739998 2247.42 0.459998 2248.94 0.459998C2249.86 0.459998 2250.74 0.569999 2251.58 0.789999C2252.44 1.01 2253.24 1.31 2253.98 1.69C2254.72 2.07 2255.39 2.52 2255.99 3.04C2256.61 3.56 2257.14 4.12 2257.58 4.72L2255.03 6.91C2254.39 5.97 2253.54 5.22 2252.48 4.66C2251.44 4.1 2250.26 3.82 2248.94 3.82C2247.88 3.82 2246.9 4.02 2246 4.42C2245.1 4.8 2244.32 5.33 2243.66 6.01C2243.02 6.67 2242.51 7.46 2242.13 8.38C2241.77 9.3 2241.59 10.29 2241.59 11.35C2241.59 12.41 2241.77 13.4 2242.13 14.32C2242.51 15.24 2243.02 16.04 2243.66 16.72C2244.32 17.38 2245.1 17.91 2246 18.31C2246.9 18.69 2247.88 18.88 2248.94 18.88C2250.26 18.88 2251.44 18.6 2252.48 18.04C2253.54 17.48 2254.39 16.73 2255.03 15.79L2257.58 17.98C2257.14 18.58 2256.61 19.14 2255.99 19.66C2255.39 20.18 2254.72 20.63 2253.98 21.01C2253.24 21.39 2252.44 21.69 2251.58 21.91C2250.74 22.13 2249.86 22.24 2248.94 22.24ZM2264.56 4.12H2258.89V0.699999H2273.77V4.12H2268.07V22H2264.56V4.12ZM2276.99 0.699999H2280.47V22H2276.99V0.699999ZM2295.29 22.24C2293.77 22.24 2292.35 21.96 2291.03 21.4C2289.71 20.84 2288.56 20.07 2287.58 19.09C2286.6 18.11 2285.82 16.96 2285.24 15.64C2284.68 14.32 2284.4 12.89 2284.4 11.35C2284.4 9.83 2284.68 8.41 2285.24 7.09C2285.82 5.75 2286.6 4.59 2287.58 3.61C2288.56 2.63 2289.71 1.86 2291.03 1.3C2292.35 0.739998 2293.77 0.459998 2295.29 0.459998C2296.79 0.459998 2298.2 0.739998 2299.52 1.3C2300.86 1.86 2302.02 2.63 2303 3.61C2303.98 4.59 2304.75 5.75 2305.31 7.09C2305.89 8.41 2306.18 9.83 2306.18 11.35C2306.18 12.89 2305.89 14.32 2305.31 15.64C2304.75 16.96 2303.98 18.11 2303 19.09C2302.02 20.07 2300.86 20.84 2299.52 21.4C2298.2 21.96 2296.79 22.24 2295.29 22.24ZM2295.29 18.88C2296.33 18.88 2297.3 18.69 2298.2 18.31C2299.1 17.91 2299.87 17.38 2300.51 16.72C2301.17 16.04 2301.68 15.24 2302.04 14.32C2302.42 13.4 2302.61 12.41 2302.61 11.35C2302.61 10.29 2302.42 9.3 2302.04 8.38C2301.68 7.46 2301.17 6.67 2300.51 6.01C2299.87 5.33 2299.1 4.8 2298.2 4.42C2297.3 4.02 2296.33 3.82 2295.29 3.82C2294.23 3.82 2293.25 4.02 2292.35 4.42C2291.45 4.8 2290.67 5.33 2290.01 6.01C2289.37 6.67 2288.86 7.46 2288.48 8.38C2288.12 9.3 2287.94 10.29 2287.94 11.35C2287.94 12.41 2288.12 13.4 2288.48 14.32C2288.86 15.24 2289.37 16.04 2290.01 16.72C2290.67 17.38 2291.45 17.91 2292.35 18.31C2293.25 18.69 2294.23 18.88 2295.29 18.88ZM2313.57 8.32V22H2310.09V0.459998L2324.64 14.38V0.699999H2328.12V22.24L2313.57 8.32Z" fill="white"/>
</svg>
